<?xml version="1.0" encoding="UTF-8"?>
<!DOCTYPE svg PUBLIC "-//W3C//DTD SVG 1.1//EN" "http://www.w3.org/Graphics/SVG/1.1/DTD/svg11.dtd">
<!-- Creator: CorelDRAW X7 -->
<svg xmlns="http://www.w3.org/2000/svg" xml:space="preserve" width="209.903mm" height="133.703mm" version="1.1" style="shape-rendering:geometricPrecision; text-rendering:geometricPrecision; image-rendering:optimizeQuality; fill-rule:evenodd; clip-rule:evenodd"
viewBox="0 0 20990 13370"
 xmlns:xlink="http://www.w3.org/1999/xlink">
 <defs>
  <style type="text/css">
   <![CDATA[
    .fil1 {fill:#2B2A29;fill-rule:nonzero}
    .fil0 {fill:#C99F69;fill-rule:nonzero}
   ]]>
  </style>
 </defs>
 <g id="Layer_x0020_1">
  <metadata id="CorelCorpID_0Corel-Layer"/>
  <g id="_319602072">
   <path class="fil0" d="M6171 3614c143,132 388,321 698,422 172,56 363,85 566,85 93,0 177,-6 246,-14 -143,-132 -388,-321 -698,-422 -172,-56 -363,-85 -566,-85 -93,0 -177,6 -246,14zm1264 725c-226,0 -439,-32 -634,-96 -564,-184 -923,-614 -938,-632l-108 -133 165 -42c9,-2 212,-54 497,-54 226,0 439,32 634,96 564,184 923,614 938,632l108 132 -165 43c-9,2 -212,54 -497,54z"/>
   <path class="fil0" d="M12726 3701l706 -842c32,-38 27,-95 -11,-127 -39,-32 -95,-27 -127,11l-706 842 138 116z"/>
   <path class="fil0" d="M13701 2967c-38,-32 -95,-27 -127,12l-524 624c-98,117 -272,132 -388,35 -117,-98 -132,-272 -34,-388l524 -625c32,-39 27,-96 -12,-128 -38,-32 -95,-27 -127,12l-524 625c-141,169 -139,411 -7,577l-471 562c-32,38 -27,95 11,127 38,32 95,27 127,-11l472 -562c186,102 425,62 567,-107l524 -626c32,-38 27,-95 -11,-127z"/>
   <path class="fil1" d="M3760 3615l-317 666c-276,-144 -571,-217 -884,-217 -42,0 -140,3 -297,9l0 1337 1351 0 -382 666c-180,-83 -337,-139 -470,-168 -104,-21 -270,-36 -499,-46l0 702c0,449 48,844 144,1187l-917 0c94,-353 141,-763 141,-1231l0 -1774c0,-451 -47,-828 -141,-1131l2271 0z"/>
   <path class="fil1" d="M5967 5947c6,-177 -40,-330 -137,-458 -103,-142 -242,-213 -415,-213 -191,0 -338,82 -442,245 -85,138 -128,308 -128,510l1119 0 3 -84zm482 202l-6 293 -1613 0c84,647 382,970 895,970 195,0 414,-53 656,-159l-217 529c-223,57 -406,85 -549,85 -435,0 -776,-140 -1023,-420 -237,-266 -355,-619 -355,-1057 0,-408 95,-754 285,-1038 219,-325 523,-487 911,-487 342,0 605,134 787,402 160,233 237,527 229,882z"/>
   <path class="fil1" d="M8776 7561c0,266 -103,475 -309,625 -184,137 -413,206 -687,206 -133,0 -354,-34 -661,-101l0 -716c269,270 496,405 679,405 102,0 191,-33 268,-99 78,-67 116,-151 116,-253 0,-119 -86,-252 -257,-399 -315,-264 -475,-400 -481,-408 -174,-184 -261,-381 -261,-593 0,-248 104,-453 312,-616 190,-148 413,-223 670,-223 168,0 348,38 540,112l0 561c-201,-174 -378,-261 -530,-261 -103,0 -193,27 -269,82 -86,62 -129,143 -129,243 0,129 86,268 258,417l480 411c174,184 261,386 261,607z"/>
   <path class="fil1" d="M11145 6493l-217 558c-204,59 -390,88 -557,88 -332,0 -540,-127 -624,-381 -35,-110 -53,-377 -53,-801l0 -1347 -408 0 984 -1017 0 606 682 0 0 411 -682 0 0 1334c0,221 15,373 44,455 55,151 171,226 350,226 164,0 325,-44 481,-132z"/>
   <path class="fil1" d="M12991 7994l0 -799 -755 0c-61,184 -92,331 -92,443 0,259 170,388 509,388 94,0 206,-11 338,-32zm690 426l-690 0 0 -277 -455 338 -135 3c-234,6 -429,-45 -583,-153 -174,-121 -261,-296 -261,-525 0,-206 89,-387 267,-544 133,-115 328,-226 586,-332 194,-73 387,-146 581,-217l0 -158c0,-414 -179,-621 -536,-621 -161,0 -370,78 -628,232l162 -550c247,-91 460,-137 640,-137 388,0 655,133 802,399 110,198 165,511 165,938 0,88 -3,221 -9,401 -6,179 -9,312 -9,398 0,348 34,617 103,805z"/>
   <path class="fil1" d="M16746 6563l-805 0c76,-183 115,-448 115,-798l0 -988c0,-202 -25,-346 -74,-432 -66,-122 -193,-183 -382,-183 -142,0 -335,64 -579,192l0 1317c0,349 39,646 115,892l-805 0c55,-179 88,-314 100,-406 10,-70 15,-212 15,-426l0 -1084c0,-350 -39,-672 -115,-963l690 0 0 520 444 -509c139,-49 267,-73 384,-73 307,0 523,121 650,364 100,194 150,483 150,867l0 925c0,335 32,596 97,785z"/>
   <path class="fil1" d="M18833 7375l0 -800 -755 0c-61,185 -91,332 -91,444 0,258 169,388 508,388 94,0 207,-11 338,-32zm690 425l-690 0 0 -276 -454 338 -135 3c-235,6 -429,-45 -584,-153 -174,-121 -260,-296 -260,-526 0,-205 88,-386 266,-543 133,-116 329,-226 587,-332 193,-73 387,-146 580,-217l0 -158c0,-414 -179,-621 -536,-621 -160,0 -369,77 -627,232l161 -550c247,-91 461,-137 641,-137 388,0 655,133 802,399 109,198 164,511 164,937 0,89 -3,222 -9,402 -5,179 -8,311 -8,398 0,348 34,616 102,804z"/>
   <path class="fil0" d="M10252 8026c-124,0 -225,101 -225,225 0,124 101,225 225,225 124,0 225,-101 225,-225 0,-124 -101,-225 -225,-225zm0 618c-217,0 -394,-176 -394,-393 0,-217 177,-393 394,-393 217,0 393,176 393,393 0,217 -176,393 -393,393z"/>
   <path class="fil0" d="M18003 3401c-124,0 -225,101 -225,225 0,124 101,225 225,225 123,0 224,-101 224,-225 0,-124 -101,-225 -224,-225zm0 619c-217,0 -394,-177 -394,-394 0,-217 177,-393 394,-393 216,0 393,176 393,393 0,217 -177,394 -393,394z"/>
   <path class="fil0" d="M16545 8312l-1222 -441c200,-56 529,-97 923,45 242,88 293,276 299,396zm-1524 -515c-31,18 -48,51 -44,86 3,35 26,65 59,76l2111 757c47,17 98,-7 115,-54 17,-47 -7,-99 -54,-116l-482 -168c12,-196 -62,-502 -419,-631 -737,-267 -1264,37 -1286,50z"/>
   <path class="fil0" d="M2910 8692c114,142 91,351 -51,465 -214,172 -801,378 -879,282 -77,-96 251,-626 465,-797 142,-115 350,-92 465,50zm-1070 860c213,266 977,-130 1132,-255 196,-157 244,-429 128,-642l607 -484c39,-32 45,-88 14,-127 -31,-39 -88,-45 -127,-14l-607 484c-183,-159 -460,-170 -655,-13 -155,125 -706,786 -492,1051z"/>
  </g>
 </g>
</svg>
